<?xml version="1.0" encoding="utf-8"?>
<!-- Generator: Adobe Illustrator 26.0.1, SVG Export Plug-In . SVG Version: 6.00 Build 0)  -->
<svg version="1.1" id="Layer_1" xmlns="http://www.w3.org/2000/svg" xmlns:xlink="http://www.w3.org/1999/xlink" x="0px" y="0px"
	 viewBox="0 0 818.1 230.5" style="enable-background:new 0 0 818.1 230.5;" xml:space="preserve">
<style type="text/css">
	.st0{fill:#FFFFFF;}
</style>
<g>
	<g>
		<g>
			<g>
				<g>
					<path class="st0" d="M54.6,100.7c-0.2,0-0.4,0.2-0.4,0.4c0,0.2,0.2,0.4,0.4,0.4h5H65h5c0.2,0,0.4-0.2,0.4-0.4
						c0-0.2-0.2-0.4-0.4-0.4H54.6z"/>
					<path class="st0" d="M65.1,102.9h-5.4c-0.6,0-1.2,0.6-1.2,1.2s0.6,1.2,1.2,1.2h5.4c0.6,0,1.2-0.6,1.2-1.2
						C66.3,103.5,65.7,102.9,65.1,102.9z"/>
					<path class="st0" d="M54.6,98.5c-0.2,0-0.4,0.2-0.4,0.4c0,0.2,0.2,0.4,0.4,0.4h15.5c0.2,0,0.4-0.2,0.4-0.4
						c0-0.2-0.2-0.4-0.4-0.4H54.6z"/>
					<path class="st0" d="M65.1,24.2c-33.1,0-47.5,22.2-47.5,49.6c0,27.4,15.1,49.6,47.5,49.6c27.5,0,43.9-22.2,43.9-49.6
						C109,46.4,92.6,24.2,65.1,24.2z M77.7,71.9c-7.2,11.3-5.7,17.7-5.8,19.4c-0.2,1.8-2.8,2.3-2.8,2.3v1.3H70c1,0,1.8,0.8,1.8,1.8
						c0,0.4-0.2,0.8-0.5,1.1c0.3,0.3,0.6,0.7,0.6,1.1c0,0.4-0.2,0.8-0.5,1.1c0.2,0.3,0.5,0.6,0.5,1.1c0,1-0.8,1.8-1.8,1.8h-2.7
						c0.2,0.4,0.3,0.8,0.3,1.2c0,1.5-1.2,2.7-2.7,2.7h-5.4c-1.5,0-2.7-1.2-2.7-2.7c0-0.4,0.2-0.8,0.3-1.2h-2.7c-1,0-1.8-0.8-1.8-1.8
						c0-0.4,0.2-0.8,0.5-1.1c-0.2-0.3-0.5-0.6-0.5-1.1s0.2-0.8,0.5-1.1c-0.2-0.3-0.5-0.6-0.5-1.1c0-1,0.8-1.8,1.8-1.8h1.2v-1.3
						c0,0-2.6-0.5-2.8-2.3c-0.2-1.8,1.4-8.1-5.8-19.4c-7.2-11.3-1.7-30.2,15.3-30.2C79.4,41.8,84.9,60.6,77.7,71.9z"/>
					<path class="st0" d="M54.6,96.3c-0.2,0-0.4,0.2-0.4,0.4c0,0.2,0.2,0.4,0.4,0.4h15.5c0.2,0,0.4-0.2,0.4-0.4
						c0-0.2-0.2-0.4-0.4-0.4H54.6z"/>
				</g>
				<g>
					<g>
						<path class="st0" d="M185.1,32.3c-6.7-5.1-16.6-7.7-30.5-7.7c-13.8,0-23.5,0.9-30.5,2v94.9h22.3V87.1c2.1,0.2,4.8,0.4,7.7,0.4
							c13.4,0,24.7-3.1,32.4-10.1c6-5.4,9.2-13.4,9.2-22.8C195.7,45.2,191.4,37.2,185.1,32.3z M153.9,70.9c-3.2,0-5.6-0.2-7.5-0.6
							V42c1.6-0.5,4.7-0.9,9.3-0.9c11.3,0,17.6,5.3,17.6,14.1C173.3,65.1,165.9,70.9,153.9,70.9z"/>
					</g>
					<g>
						<path class="st0" d="M269.1,80.8h-36.6v22.8h40.9v17.8h-63.6V25.3h61.5v17.8h-38.9v20h36.7V80.8z"/>
					</g>
					<g>
						<path class="st0" d="M288.8,121.4V25.3h26.3l20.7,35.2c5.9,10.1,11.8,22.1,16.3,33h0.4c-1.5-12.7-1.9-25.7-1.9-40.1V25.3h20.7
							v96.1h-23.6l-21.3-37.1C320.5,74,314,61.6,309.1,50.4l-0.4,0.2c0.6,12.7,0.9,26.2,0.9,41.9v29L288.8,121.4L288.8,121.4z"/>
					</g>
				</g>
			</g>
		</g>
	</g>
	<g>
		<path class="st0" d="M456.9,37.1H426V121h-11.5V37.1h-30.9V25.9H457L456.9,37.1L456.9,37.1z"/>
		<path class="st0" d="M533.8,82.7c0,6.9-0.7,12.9-2.1,18.1c-1.4,5.1-3.6,9.4-6.8,12.8c-3,3.2-6.5,5.6-10.4,7c-4,1.5-8.7,2.3-14,2.3
			c-5.4,0-10.2-0.8-14.2-2.3s-7.5-3.9-10.2-7c-3.2-3.5-5.4-7.7-6.8-12.6s-2.1-11-2.1-18.2V25.9h11.5v57.5c0,5.2,0.3,9.2,1,12.2
			c0.6,3,1.7,5.7,3.2,8.1c1.7,2.8,4,4.9,7,6.2c2.9,1.4,6.5,2.1,10.5,2.1c4.1,0,7.7-0.7,10.6-2.1c2.9-1.4,5.3-3.5,7-6.3
			c1.5-2.4,2.6-5.2,3.2-8.3c0.6-3.2,1-7,1-11.7V25.9h11.5v56.9h0.1V82.7z"/>
		<path class="st0" d="M617.6,37.1h-30.9V121h-11.5V37.1h-30.9V25.9h73.5L617.6,37.1L617.6,37.1z"/>
		<path class="st0" d="M699.1,52.4c-1.9-6.1-4.5-11.3-8.1-15.6c-3.5-4.1-7.7-7.4-12.5-9.5c-5-2.2-10.6-3.3-16.8-3.3
			c-6,0-11.5,1.1-16.6,3.3c-5,2.2-9.3,5.4-12.7,9.6c-3.6,4.4-6.3,9.6-8.2,15.8c-1.8,6.1-2.8,13-2.8,20.8c0,7.9,0.9,14.8,2.8,21
			c1.9,6.1,4.6,11.3,8.1,15.5s7.7,7.4,12.7,9.6c4.9,2.2,10.5,3.3,16.6,3.3c6.3,0,11.8-1,16.7-3.2c4.8-2.2,9-5.4,12.6-9.7
			c3.5-4.2,6.2-9.3,8.1-15.5c1.9-6.3,2.9-13.3,2.9-21.1C701.9,65.6,701,58.5,699.1,52.4z M682.4,102c-5.1,6.7-12,10-20.6,10
			c-8.6,0-15.5-3.4-20.6-10c-5.1-6.6-7.7-16.1-7.7-28.6c0-12.4,2.5-21.9,7.5-28.6s11.9-10,20.7-10s15.7,3.3,20.7,10
			s7.5,16.3,7.5,28.6C689.9,85.9,687.3,95.4,682.4,102z"/>
		<path class="st0" d="M759.4,79.4c5.5-2.3,9.8-5.8,13-10.4c3.2-4.6,4.7-10.3,4.7-17.2c0-5.1-0.9-9.3-2.7-12.6
			c-1.8-3.3-4.2-6-7.4-8.2c-2.8-1.9-5.9-3.3-9.4-4s-7.8-1.1-13.1-1.1h-24.3v95h11.4V83.1h16.3l29,37.8h15L759.4,79.4z M743.5,72.7
			h-11.7V36.8h13.5c3.1,0,5.8,0.2,8.1,0.7c2.3,0.5,4.2,1.4,5.9,2.6c2.1,1.4,3.5,3.2,4.4,5.3c0.9,2.1,1.3,4.4,1.3,7.2
			c0,3.6-0.5,6.6-1,8.9c-0.9,2.4-2.1,4.4-3.9,6.2c-2,1.9-4.2,3.1-7,3.9C750.3,72.4,747.1,72.7,743.5,72.7z"/>
	</g>
	<g>
		<path class="st0" d="M806.9,12c-3.5-3.4-7.6-4.9-12.5-4.6c-7.7,0.5-14.7,7.1-14.7,16c0,8.7,7,15.7,15.7,15.9
			c9,0.2,16.2-7.1,16.2-17C811.6,19,810.1,15.2,806.9,12z M795.4,37.1C788.2,37,781.9,31,782,23.3c0.2-7.4,6.3-13.5,13.8-13.4
			c7.5,0,13.4,6.2,13.4,13.4C809.3,30.8,803.1,37.1,795.4,37.1z"/>
		<path class="st0" d="M799.2,25.6c0.1-0.1,0.1-0.1,0.2-0.1c1.6-0.5,2.7-1.6,3.1-3.2c0.3-1.1,0.3-2.2,0.1-3.3
			c-0.3-1.6-1.3-2.7-2.9-3.2c-1-0.3-2.2-0.5-3.3-0.5h-6.5v16.2c0.9,0,1.7,0,2.5-0.1V26h3.3c0.3,0,0.3,0,0.5,0.2
			c1.3,1.7,2.4,3.3,3.6,5c0.1,0.1,0.1,0.2,0.3,0.2h3.1c0,0,0.1,0,0.2,0C802,29.5,800.6,27.5,799.2,25.6z M796.1,23.5h-3.4
			c-0.1,0-0.1,0-0.2,0v-5.7h2.7c0.8,0,1.6,0,2.4,0.1c0.4,0,0.7,0.1,1,0.2c0.6,0.3,1,0.8,1.2,1.4c0.2,0.8,0.2,1.6-0.1,2.4
			c-0.2,0.7-0.7,1.1-1.3,1.3C797.6,23.4,796.8,23.5,796.1,23.5z"/>
	</g>
</g>
<path class="st0" d="M194.1,175.2c0.6,1.3,0.9,2.8,0.9,4.3s-0.3,3-0.9,4.3c-0.6,1.3-1.4,2.5-2.4,3.5c-1.1,1-2.2,1.8-3.6,2.4
	c-1.4,0.6-2.8,0.9-4.3,0.9H179v-22.2h4.9c1.5,0,3,0.3,4.3,0.9c1.3,0.6,2.5,1.4,3.5,2.4S193.5,173.9,194.1,175.2z"/>
<path class="st0" d="M360.6,171l-4.9,13.5h9.8L360.6,171z M360.6,171l-4.9,13.5h9.8L360.6,171z M360.6,171l-4.9,13.5h9.8L360.6,171z
	 M463.2,171l-4.9,13.5h9.8L463.2,171z M463.2,171l-4.9,13.5h9.8L463.2,171z M360.6,171l-4.9,13.5h9.8L360.6,171z M360.6,171
	l-4.9,13.5h9.8L360.6,171z M463.2,171l-4.9,13.5h9.8L463.2,171z M550.8,171l-4.9,13.5h9.8L550.8,171z M603,175.2
	c-0.6-1.3-1.4-2.5-2.4-3.5s-2.2-1.8-3.5-2.4c-1.3-0.6-2.8-0.9-4.3-0.9h-4.9v22.2h4.8c1.5,0,2.9-0.3,4.3-0.9c1.3-0.6,2.5-1.4,3.6-2.4
	c1-1,1.8-2.2,2.4-3.5s0.9-2.8,0.9-4.3S603.6,176.5,603,175.2z M603,175.2c-0.6-1.3-1.4-2.5-2.4-3.5s-2.2-1.8-3.5-2.4
	c-1.3-0.6-2.8-0.9-4.3-0.9h-4.9v22.2h4.8c1.5,0,2.9-0.3,4.3-0.9c1.3-0.6,2.5-1.4,3.6-2.4c1-1,1.8-2.2,2.4-3.5s0.9-2.8,0.9-4.3
	S603.6,176.5,603,175.2z M550.8,171l-4.9,13.5h9.8L550.8,171z M463.2,171l-4.9,13.5h9.8L463.2,171z M360.6,171l-4.9,13.5h9.8
	L360.6,171z M360.6,171l-4.9,13.5h9.8L360.6,171z M463.2,171l-4.9,13.5h9.8L463.2,171z M550.8,171l-4.9,13.5h9.8L550.8,171z
	 M603,175.2c-0.6-1.3-1.4-2.5-2.4-3.5s-2.2-1.8-3.5-2.4c-1.3-0.6-2.8-0.9-4.3-0.9h-4.9v22.2h4.8c1.5,0,2.9-0.3,4.3-0.9
	c1.3-0.6,2.5-1.4,3.6-2.4c1-1,1.8-2.2,2.4-3.5s0.9-2.8,0.9-4.3S603.6,176.5,603,175.2z M603,175.2c-0.6-1.3-1.4-2.5-2.4-3.5
	s-2.2-1.8-3.5-2.4c-1.3-0.6-2.8-0.9-4.3-0.9h-4.9v22.2h4.8c1.5,0,2.9-0.3,4.3-0.9c1.3-0.6,2.5-1.4,3.6-2.4c1-1,1.8-2.2,2.4-3.5
	s0.9-2.8,0.9-4.3S603.6,176.5,603,175.2z M550.8,171l-4.9,13.5h9.8L550.8,171z M463.2,171l-4.9,13.5h9.8L463.2,171z M360.6,171
	l-4.9,13.5h9.8L360.6,171z M794.9,144.4H18.7c-4.3,0-7.8,3.5-7.8,7.8V177h135.2v6H10.9v24.6c0,4.3,3.5,7.8,7.8,7.8h776.2
	c4.3,0,7.7-3.4,7.8-7.8v-55.4C802.7,147.9,799.2,144.4,794.9,144.4z M200.8,186.5c-1,2.2-2.3,4.2-4,5.9c-1.7,1.7-3.6,3-5.9,4
	c-2.2,1-4.6,1.4-7.1,1.4h-12.2V161h12.2c2.5,0,4.9,0.5,7.1,1.4c2.2,1,4.2,2.3,5.9,4c1.7,1.7,3,3.6,4,5.9c1,2.2,1.4,4.6,1.4,7.1
	S201.7,184.3,200.8,186.5z M222.4,197.8h-7.3V161h7.3V197.8z M271.2,186.5c-0.9,2.4-2.2,4.5-3.8,6.3c-1.7,1.8-3.6,3.3-5.8,4.3
	c-2.2,1-4.6,1.4-7.2,1.4c-2.6,0-4.9-0.5-7.1-1.5s-4.1-2.4-5.8-4.1c-1.6-1.8-2.9-3.8-3.8-6.1c-0.9-2.3-1.4-4.8-1.4-7.4
	c0-2.8,0.5-5.4,1.5-7.7s2.4-4.3,4.1-6c1.7-1.7,3.7-3,5.8-3.9c2.1-0.9,4.5-1.4,6.8-1.4c2.6,0,5.1,0.6,7.6,1.8s4.7,3.1,6.7,5.8
	l-6.5,3.5c-1.1-1.3-2.4-2.3-3.7-2.9c-1.4-0.6-2.8-0.9-4.2-0.9c-1.4,0-2.8,0.3-4.1,0.9c-1.3,0.6-2.5,1.4-3.5,2.5
	c-1,1.1-1.8,2.3-2.4,3.8c-0.6,1.5-0.9,3.1-0.9,4.8c0,1.6,0.3,3.2,0.9,4.6c0.6,1.4,1.4,2.7,2.4,3.7s2.2,1.9,3.5,2.5s2.7,0.9,4.2,0.9
	c0.9,0,1.8-0.1,2.7-0.4c0.9-0.3,1.8-0.7,2.6-1.2s1.6-1.2,2.3-2c0.7-0.8,1.3-1.7,1.8-2.7h-5.7v-6.3h14.2
	C272.5,181.5,272.1,184.1,271.2,186.5z M293.2,197.8h-7.3V161h7.3V197.8z M336.1,168.3h-10.8v29.5H318v-29.5h-10.8V161h28.9V168.3z
	 M370.4,197.8l-2.2-6.1h-15.1l-2.2,6.1h-7.7l13.3-36.8h8.3l13.3,36.8H370.4z M412.5,197.8h-22.1V161h7.3v29.5h14.8V197.8z
	 M473,197.8l-2.2-6.1h-15.1l-2.2,6.1h-7.7l13.3-36.8h8.3l13.3,36.8H473z M516.3,196.3c-2.5,1.4-5.3,2.2-8.3,2.2
	c-2.5,0-4.8-0.5-7-1.5s-4.1-2.4-5.8-4.1c-1.7-1.8-3-3.8-3.9-6.1c-0.9-2.3-1.4-4.8-1.4-7.4c0-2.6,0.5-5.1,1.4-7.4
	c0.9-2.3,2.2-4.3,3.9-6.1c1.7-1.8,3.6-3.1,5.8-4.1s4.5-1.5,7-1.5c3,0,5.7,0.7,8.2,2.1c2.5,1.4,4.6,3.2,6.2,5.5l-6.5,3.5
	c-1-1.2-2.2-2.1-3.5-2.8c-1.4-0.7-2.9-1-4.4-1s-2.9,0.3-4.2,0.9s-2.5,1.5-3.5,2.5c-1,1.1-1.8,2.3-2.3,3.8s-0.8,3-0.8,4.6
	c0,1.6,0.3,3.2,0.8,4.6s1.3,2.7,2.3,3.8c1,1.1,2.1,1.9,3.5,2.5c1.4,0.6,2.7,0.9,4.2,0.9c1.6,0,3.1-0.4,4.5-1.1
	c1.4-0.7,2.6-1.6,3.5-2.8l6.5,3.5C520.9,193.1,518.8,194.9,516.3,196.3z M560.5,197.8l-2.2-6.1h-15.1l-2.2,6.1h-7.7l13.3-36.8h8.3
	l13.3,36.8H560.5z M609.7,186.5c-1,2.2-2.3,4.2-4,5.9c-1.7,1.7-3.6,3-5.9,4c-2.2,1-4.6,1.4-7.1,1.4h-12.2V161h12.2
	c2.5,0,4.9,0.5,7.1,1.4c2.2,0.9,4.2,2.3,5.9,4c1.7,1.7,3,3.6,4,5.9c1,2.2,1.4,4.6,1.4,7.1S610.6,184.3,609.7,186.5z M646.5,168.3
	h-16v6.2H643v7.3h-12.5v8.8h16v7.3h-23.3V161h23.3V168.3z M696.3,197.8l-4.1-21.1l-7.9,20.7h-5l-7.8-20.7l-4.1,21.1h-7.2l7.1-36.8
	h6.1l8.5,22.5l8.6-22.5h6.1l7.1,36.8H696.3z M733.4,181.2v16.6h-7.3v-16.6L713.4,161h8.6l7.8,12.3l7.7-12.3h8.6L733.4,181.2z
	 M600.6,171.7c-1-1-2.2-1.8-3.5-2.4c-1.3-0.6-2.8-0.9-4.3-0.9h-4.9v22.2h4.8c1.5,0,2.9-0.3,4.3-0.9c1.3-0.6,2.5-1.4,3.6-2.4
	c1-1,1.8-2.2,2.4-3.5s0.9-2.8,0.9-4.3s-0.3-3-0.9-4.3S601.6,172.7,600.6,171.7z M545.9,184.5h9.8l-4.9-13.5L545.9,184.5z
	 M458.3,184.5h9.8l-4.9-13.5L458.3,184.5z M355.7,184.5h9.8l-4.9-13.5L355.7,184.5z M360.6,171l-4.9,13.5h9.8L360.6,171z M463.2,171
	l-4.9,13.5h9.8L463.2,171z M550.8,171l-4.9,13.5h9.8L550.8,171z M603,175.2c-0.6-1.3-1.4-2.5-2.4-3.5s-2.2-1.8-3.5-2.4
	c-1.3-0.6-2.8-0.9-4.3-0.9h-4.9v22.2h4.8c1.5,0,2.9-0.3,4.3-0.9c1.3-0.6,2.5-1.4,3.6-2.4c1-1,1.8-2.2,2.4-3.5s0.9-2.8,0.9-4.3
	S603.6,176.5,603,175.2z M603,175.2c-0.6-1.3-1.4-2.5-2.4-3.5s-2.2-1.8-3.5-2.4c-1.3-0.6-2.8-0.9-4.3-0.9h-4.9v22.2h4.8
	c1.5,0,2.9-0.3,4.3-0.9c1.3-0.6,2.5-1.4,3.6-2.4c1-1,1.8-2.2,2.4-3.5s0.9-2.8,0.9-4.3S603.6,176.5,603,175.2z M550.8,171l-4.9,13.5
	h9.8L550.8,171z M463.2,171l-4.9,13.5h9.8L463.2,171z M360.6,171l-4.9,13.5h9.8L360.6,171z M360.6,171l-4.9,13.5h9.8L360.6,171z
	 M463.2,171l-4.9,13.5h9.8L463.2,171z M550.8,171l-4.9,13.5h9.8L550.8,171z M550.8,171l-4.9,13.5h9.8L550.8,171z M463.2,171
	l-4.9,13.5h9.8L463.2,171z M360.6,171l-4.9,13.5h9.8L360.6,171z M360.6,171l-4.9,13.5h9.8L360.6,171z M463.2,171l-4.9,13.5h9.8
	L463.2,171z M463.2,171l-4.9,13.5h9.8L463.2,171z M360.6,171l-4.9,13.5h9.8L360.6,171z M360.6,171l-4.9,13.5h9.8L360.6,171z
	 M360.6,171l-4.9,13.5h9.8L360.6,171z"/>
</svg>
